<svg xmlns="http://www.w3.org/2000/svg" width="14.3" height="14.3" viewBox="0 0 14.3 14.3">
  <g id="vuesax_outline_export" data-name="vuesax/outline/export" transform="translate(-299.85 -507.85)">
    <g id="export" transform="translate(300 508)">
      <path id="Vector" d="M.436,5.657a.433.433,0,0,1-.309-.128.44.44,0,0,1,0-.618L4.91.127a.437.437,0,0,1,.618.618L.745,5.529A.433.433,0,0,1,.436,5.657Z" transform="translate(7.147 1.197)" fill="#fff" stroke="#fff" stroke-width="0.3"/>
      <path id="Vector-2" data-name="Vector" d="M3.237,3.675A.441.441,0,0,1,2.8,3.237V.875H.438A.441.441,0,0,1,0,.438.441.441,0,0,1,.438,0h2.8a.441.441,0,0,1,.438.438v2.8A.441.441,0,0,1,3.237,3.675Z" transform="translate(9.596 0.729)" fill="#fff" stroke="#fff" stroke-width="0.3"/>
      <path id="Vector-3" data-name="Vector" d="M8.021,12.542h-3.5C1.353,12.542,0,11.188,0,8.021v-3.5C0,1.353,1.353,0,4.521,0H5.688a.441.441,0,0,1,.438.438.441.441,0,0,1-.437.438H4.521C1.832.875.875,1.832.875,4.521v3.5c0,2.689.957,3.646,3.646,3.646h3.5c2.689,0,3.646-.957,3.646-3.646V6.854a.437.437,0,1,1,.875,0V8.021C12.542,11.188,11.188,12.542,8.021,12.542Z" transform="translate(0.729 0.729)" fill="#fff" stroke="#fff" stroke-width="0.3"/>
      <path id="Vector-4" data-name="Vector" d="M0,0H14V14H0Z" fill="none" stroke="#fff" stroke-width="0.3" opacity="0"/>
    </g>
  </g>
</svg>
