<svg id="vuesax_outline_export" data-name="vuesax/outline/export" xmlns="http://www.w3.org/2000/svg" width="20.984" height="20.984" viewBox="0 0 20.984 20.984">
  <g id="export">
    <path id="Vector" d="M11.83,12.321h-5.7C1.836,12.321,0,10.485,0,6.192V6.079C0,2.2,1.53.325,4.958,0A.675.675,0,0,1,5.675.6a.657.657,0,0,1-.595.717c-2.745.254-3.768,1.548-3.768,4.774V6.2c0,3.559,1.259,4.818,4.818,4.818h5.7c3.559,0,4.818-1.259,4.818-4.818V6.087c0-3.244-1.04-4.538-3.838-4.774a.654.654,0,1,1,.114-1.3c3.48.3,5.036,2.177,5.036,6.085V6.21C17.959,10.485,16.123,12.321,11.83,12.321Z" transform="translate(1.513 7.133)" fill="#fff"/>
    <path id="Vector-2" data-name="Vector" d="M.656,11.262A.661.661,0,0,1,0,10.606V.656A.661.661,0,0,1,.656,0a.661.661,0,0,1,.656.656v9.95A.661.661,0,0,1,.656,11.262Z" transform="translate(9.836 2.509)" fill="#fff"/>
    <path id="Vector-3" data-name="Vector" d="M6.512,4.238a.649.649,0,0,1-.463-.192L3.583,1.58,1.117,4.046A.655.655,0,0,1,.19,3.119L3.119.19a.66.66,0,0,1,.927,0L6.975,3.119a.66.66,0,0,1,0,.927A.634.634,0,0,1,6.512,4.238Z" transform="translate(6.91 1.532)" fill="#fff"/>
    <path id="Vector-4" data-name="Vector" d="M0,0H20.984V20.984H0Z" fill="none" opacity="0"/>
  </g>
</svg>
