<svg xmlns="http://www.w3.org/2000/svg" width="13.753" height="13.547" viewBox="0 0 13.753 13.547">
  <path id="Path_343068" data-name="Path 343068" d="M194.2,29.2a4.292,4.292,0,0,1-.49,2.361,1.323,1.323,0,0,0,.278,2.09c.822.689,1.587,1.448,2.363,2.191.333.318.574.726.186,1.126-.438.451-.79.026-1.082-.256-.8-.778-1.607-1.561-2.357-2.39a1.185,1.185,0,0,0-1.748-.3,5.485,5.485,0,0,1-7.576-2.081,5.565,5.565,0,0,1,7.261-7.752A5.048,5.048,0,0,1,194.2,29.2m-5.5-4.388a4.487,4.487,0,0,0-4.433,4.253,4.427,4.427,0,0,0,4.32,4.516,4.547,4.547,0,0,0,4.481-4.39,4.541,4.541,0,0,0-4.369-4.379" transform="translate(-182.983 -23.618)" fill="#f3f3f3"/>
</svg>
