<svg xmlns="http://www.w3.org/2000/svg" width="13.326" height="13.96" viewBox="0 0 13.326 13.96">
  <path id="Path_343065" data-name="Path 343065" d="M309.561,32.652c0-.345,0-.689,0-1.034,0-.172.082-.411,0-.5-.9-1-2.08-.267-3.116-.477-.532-.108-.733.107-.717.706.024.858-.429.828-.968.349-.128-.114-.242-.245-.366-.364-1.337-1.292-1.045-2.794.7-3.471.538-.208,1.048-.121.764.628s.093.753.647.78c3.151.154,3.374-.074,3.079-3.256-.039-.421-.063-.832-.671-.52a.5.5,0,0,1-.758-.228.617.617,0,0,1,.145-.713,18.011,18.011,0,0,1,1.355-1.378.761.761,0,0,1,1.148.051c.389.4.767.816,1.172,1.2a.755.755,0,0,1,.177.938c-.136.278-.411.226-.671.1-.532-.254-.571.1-.58.486,0,.129,0,.259,0,.388-.071,3.1.157,3.3,3.268,2.927.471-.056.78-.111.451-.687a.5.5,0,0,1,.249-.755c.336-.151.547.081.784.279,1.684,1.408,1.649,2.367-.142,3.651-.495.355-.975.415-.929-.343.051-.834-.4-.792-.95-.78-3.36.073-2.64-.5-2.729,2.672-.017.6-.148,1.243.892,1.015.462-.1.562.441.348.721A6.619,6.619,0,0,1,310.3,36.81a.4.4,0,0,1-.561-.075c-.506-.525-1.047-1.024-1.5-1.592-.312-.392-.062-.939.348-.811,1.448.453.882-.593.958-1.163a3.91,3.91,0,0,0,0-.517h.011" transform="translate(-303.558 -22.932)" fill="#f3f3f3"/>
</svg>
