<svg xmlns="http://www.w3.org/2000/svg" width="13.195" height="13.609" viewBox="0 0 13.195 13.609">
  <path id="Path_343066" data-name="Path 343066" d="M1029.909,25.823c0-.9.006-1.653,0-2.411,0-.376.108-.742.462-.834.434-.112.6.3.662.625a11.8,11.8,0,0,1,0,4.463.909.909,0,0,1-.949.73c-1.163.016-2.328.009-3.49-.037-.42-.017-.919-.107-.868-.713s.569-.542.988-.554c.474-.013.948.007,1.422.009.262,0,.549,0,.64-.306.085-.282-.126-.47-.3-.663a5.355,5.355,0,0,0-5.678-1.456,5.442,5.442,0,0,0-3.475,5.048,5.33,5.33,0,0,0,7.572,4.716,9.154,9.154,0,0,0,1.625-1.244c.273-.2.636-.421.923-.073.265.321.042.635-.184.918-1.82,2.266-6.157,3.025-8.505.759-2.616-2.525-3.419-4.634-2.02-7.847,1.524-3.5,6.337-5.333,9.613-2.462.469.411.952.808,1.57,1.33" transform="translate(-1018.046 -22.56)" fill="#f3f3f3"/>
</svg>
