<svg xmlns="http://www.w3.org/2000/svg" width="15.671" height="15.633" viewBox="0 0 15.671 15.633">
  <path id="Path_343064" data-name="Path 343064" d="M3.973,35.691a1.317,1.317,0,0,1-.783-.409c-.945-.938-1.9-1.863-2.841-2.808-.786-.792-.065-1.381.386-1.862,1.409-1.5,2.9-2.929,4.35-4.392,1.845-1.86,3.7-3.71,5.516-5.6.625-.65,1.223-.778,1.887-.166a32.711,32.711,0,0,1,2.948,2.866c.618.734-.132,1.331-.623,1.831q-4.379,4.459-8.787,8.89c-.423.427-.867.837-1.264,1.287a1.209,1.209,0,0,1-.789.361M4,34.218a1.491,1.491,0,0,0,.723-.492q3.877-3.976,7.789-7.917c2-2.02,2-2.017-.047-3.94-.031-.029-.05-.071-.08-.1-.3-.282-.65-.541-1.021-.236s-.268.67.087.985c.216.192.509.418.14.729a.481.481,0,0,1-.7,0c-.358-.367-.716-.691-1.136-.12-.4.55-.118.935.356,1.287.307.228.434.542.058.856-.31.258-.556.113-.778-.127-.3-.329-.528-.885-1.117-.471-.457.322-.312.728-.081,1.136a.464.464,0,0,1-.1.681.42.42,0,0,1-.57-.137c-.4-.519-.738-.251-1.051.1-.376.42-.059.676.225.965.246.25.828.472.458.9s-.747.048-1.053-.294a.713.713,0,0,0-1.13-.041A.652.652,0,0,0,5.008,29c.175.18.6.339.216.7a.546.546,0,0,1-.887-.065c-.3-.376-.621-.463-.955-.086A.709.709,0,0,0,3.4,30.67c.306.269.861.515.4,1-.517.55-.773-.036-1.088-.364-.192-.2-.42-.472-.775-.225a.73.73,0,0,0-.4.613A8.042,8.042,0,0,0,4,34.218" transform="translate(0 -20.059)" fill="#f3f3f3"/>
</svg>
