<svg xmlns="http://www.w3.org/2000/svg" width="13.581" height="15.454" viewBox="0 0 13.581 15.454">
  <g id="Group_83822" data-name="Group 83822" transform="translate(-695.413 -105.223)">
    <path id="Path_343086" data-name="Path 343086" d="M440.239,20.9a.7.7,0,0,0-1.126-.783l-.937.937a.692.692,0,0,0-.2.492.7.7,0,0,0,.2.492l.937.938a.7.7,0,0,0,1.172-.644,2.578,2.578,0,0,1,1.9,2.495.7.7,0,0,0,1.393,0,3.957,3.957,0,0,0-3.345-3.928" transform="translate(265.41 85.313)" fill="#fff"/>
    <path id="Path_343087" data-name="Path 343087" d="M426.187,36.207h-5.625a.7.7,0,0,0-.7.7v5.625a.7.7,0,0,0,.7.7h5.625a.7.7,0,0,0,.7-.7V36.9a.7.7,0,0,0-.7-.7M421.259,37.6h4.232v4.232h-4.232Z" transform="translate(278.828 73.234)" fill="#fff"/>
    <path id="Path_343088" data-name="Path 343088" d="M411.66,60.483a.7.7,0,0,0-1.172.644,2.578,2.578,0,0,1-1.9-2.495.7.7,0,1,0-1.393,0,3.957,3.957,0,0,0,3.345,3.928.7.7,0,0,0,1.125.783l.937-.937a.7.7,0,0,0,0-.985Z" transform="translate(288.223 57.131)" fill="#fff"/>
  </g>
</svg>
