<svg xmlns="http://www.w3.org/2000/svg" width="15.271" height="11.126" viewBox="0 0 15.271 11.126">
  <g id="Group_83824" data-name="Group 83824" transform="translate(-759.735 -107.125)">
    <path id="Path_343067" data-name="Path 343067" d="M663.084,38.365c-1.764,0-3.531-.053-5.292.017a1.737,1.737,0,0,1-2.069-1.745,40.98,40.98,0,0,1,.048-5.534c.142-1.7.827-2.22,2.565-2.122a3.165,3.165,0,0,0,2.743-1.025c.968-1.033,3.3-.9,4.57.262a2.779,2.779,0,0,0,2.2.768c2.191-.107,2.765.365,2.949,2.548a46.276,46.276,0,0,1,.109,4.757,2.2,2.2,0,0,1-2.275,2.072q-2.775,0-5.551,0m.2-1.08v-.006c1.678,0,3.357-.05,5.032.018,1.054.043,1.365-.454,1.362-1.38q-.007-2.062.028-4.124c.02-1.118-.459-1.73-1.624-1.6a3.715,3.715,0,0,1-3.142-1.112,2.763,2.763,0,0,0-3.329.021,3.7,3.7,0,0,1-3.021,1.1c-1.481-.02-1.771.261-1.81,1.765-.033,1.245.049,2.5-.023,3.737-.071,1.221.529,1.594,1.623,1.579,1.634-.022,3.269-.006,4.9-.006" transform="translate(104.081 79.867)" fill="#fbfbfb"/>
    <path id="Path_343079" data-name="Path 343079" d="M679.661,41.648a2.852,2.852,0,0,1-2.883,2.787,2.817,2.817,0,0,1-2.847-2.844,2.866,2.866,0,1,1,5.73.056m-2.994,1.56a1.685,1.685,0,0,0,1.807-1.466,1.789,1.789,0,0,0-1.584-1.836,1.612,1.612,0,0,0-1.689,1.566,1.523,1.523,0,0,0,1.465,1.736" transform="translate(90.535 71.41)" fill="#f3f3f3"/>
    <path id="Path_343080" data-name="Path 343080" d="M703.193,42.431c-.112.368-.322.631-.738.562-.475-.078-.6-.432-.576-.864a.46.46,0,0,1,.6-.491.834.834,0,0,1,.719.793" transform="translate(69.824 69.219)" fill="#f3f3f3"/>
  </g>
</svg>
