<svg xmlns="http://www.w3.org/2000/svg" width="17.621" height="14.811" viewBox="0 0 17.621 14.811">
  <g id="Group_83825" data-name="Group 83825" transform="translate(-790.328 -106.451)">
    <path id="Path_343081" data-name="Path 343081" d="M780.713,37.433H775.89a2.061,2.061,0,0,1-2.06-2.06v-8.66a2.061,2.061,0,0,1,2.06-2.06H784.5a2.061,2.061,0,0,1,2.06,2.06v1.612a.562.562,0,0,1-1.124,0V26.714a.937.937,0,0,0-.936-.936H775.89a.938.938,0,0,0-.936.936v8.66a.937.937,0,0,0,.936.936h4.823a.562.562,0,1,1,0,1.124" transform="translate(16.498 81.797)" fill="#fff"/>
    <path id="Path_343082" data-name="Path 343082" d="M819.174,60.454a1.846,1.846,0,1,0-1.846-1.846,1.848,1.848,0,0,0,1.846,1.846m0-2.809a.963.963,0,1,1-.963.963.964.964,0,0,1,.963-.963" transform="translate(-15.739 58)" fill="#fff"/>
    <path id="Path_343083" data-name="Path 343083" d="M815.757,51.228l-.38-.313a.452.452,0,0,1,0-.7l.38-.313a.8.8,0,0,0,.184-1.016l-.751-1.3a.8.8,0,0,0-.972-.348l-.461.173a.445.445,0,0,1-.158.029.45.45,0,0,1-.445-.377l-.081-.486a.8.8,0,0,0-.787-.667h-1.5a.8.8,0,0,0-.787.667l-.081.486a.45.45,0,0,1-.6.348l-.461-.173a.8.8,0,0,0-.972.348l-.751,1.3a.8.8,0,0,0,.184,1.016l.38.313a.451.451,0,0,1,0,.7l-.38.313a.8.8,0,0,0-.184,1.016l.751,1.3a.8.8,0,0,0,.972.349l.461-.173a.45.45,0,0,1,.6.348l.081.486a.8.8,0,0,0,.787.667h1.5a.8.8,0,0,0,.787-.667l.081-.486a.45.45,0,0,1,.445-.377.445.445,0,0,1,.158.029l.461.173a.8.8,0,0,0,.972-.348l.751-1.3a.8.8,0,0,0-.184-1.016m-7.5.368a1.334,1.334,0,0,0,0-2.06l-.325-.268.679-1.177.394.148a1.332,1.332,0,0,0,1.784-1.03l.069-.416h1.359l.069.416a1.332,1.332,0,0,0,1.784,1.03l.394-.148.68,1.177-.325.268a1.333,1.333,0,0,0,0,2.06l.325.268-.68,1.177-.394-.148a1.332,1.332,0,0,0-1.784,1.03l-.069.415h-1.359l-.069-.415A1.332,1.332,0,0,0,809,52.893l-.394.148-.679-1.177Z" transform="translate(-8.1 66.041)" fill="#fff"/>
    <path id="Path_343084" data-name="Path 343084" d="M794.536,43.1H794.4a.521.521,0,0,1-.521-.521V37.659a.521.521,0,0,1,.521-.521h.133a.521.521,0,0,1,.521.521V42.58a.521.521,0,0,1-.521.521" transform="translate(1.637 72.545)" fill="#fff"/>
    <path id="Path_343085" data-name="Path 343085" d="M784.634,47.039v-.133a.521.521,0,0,1,.521-.521h4.921a.521.521,0,0,1,.521.521v.133a.521.521,0,0,1-.521.521h-4.921a.521.521,0,0,1-.521-.521" transform="translate(8.491 65.691)" fill="#fff"/>
  </g>
</svg>
