<svg xmlns="http://www.w3.org/2000/svg" width="16.515" height="16.515" viewBox="0 0 16.515 16.515">
  <path id="Path_342991" data-name="Path 342991" d="M12.264,4.25A6.3,6.3,0,1,0,4.25,12.264,6.3,6.3,0,1,0,12.264,4.25ZM.968,6.322A5.336,5.336,0,0,1,11.1,3.968a6.378,6.378,0,0,0-.909-.065,6.3,6.3,0,0,0-6.29,6.29,6.378,6.378,0,0,0,.065.909A5.326,5.326,0,0,1,.968,6.322ZM9.726,10.41,6.1,6.789A5.369,5.369,0,0,1,6.789,6.1L10.41,9.726a5.369,5.369,0,0,1-.684.684Zm-1.762.975L5.13,8.551A5.294,5.294,0,0,1,5.547,7.6l3.369,3.369a5.293,5.293,0,0,1-.952.417Zm-3.069-1.7L6.83,11.62a5.374,5.374,0,0,1-1.8-.133,5.374,5.374,0,0,1-.133-1.8Zm6.073-.769L7.6,5.547a5.294,5.294,0,0,1,.952-.417l2.834,2.834A5.294,5.294,0,0,1,10.968,8.915ZM11.62,6.83,9.685,4.895a5.374,5.374,0,0,1,1.8.133A5.374,5.374,0,0,1,11.62,6.83Zm-1.427,8.717a5.326,5.326,0,0,1-4.779-3,6.3,6.3,0,0,0,7.133-7.133,5.336,5.336,0,0,1-2.354,10.134Z" fill="#fff"/>
</svg>
